<svg xmlns="http://www.w3.org/2000/svg" width="1em" height="1em" fill="currentColor" stroke-linecap="round" stroke-linejoin="round" stroke-width="1" aria-labelledby="title" viewBox="0 0 20 22"><title id="title">Object Group</title><path stroke-dasharray="1 3" d="m14.5,2.75 2,0 a2.5 2.5 0 0 1 2.5 2.5 l0,13.25 a2.5 2.5 0 0 1 -2.5 2.5 l-11.5,0 a2.5 2.5 0 0 1 -2.5 -2.5 l0,-1"/><path d="m0.5,2 0,14 a1.5 1.5 0 0 0 1.5 1.5 l12,0 a1.5 1.5 0 0 0 1.5 -1.5 l0,-14"/><path stroke-width="4" d="m2,2 12,0"/><path stroke-linecap="square" d="m4.4,7.5 7.2,0 m0,3 -7.2,0 m0,3 7.2,0"/></svg>